<svg width="22" height="22" viewBox="0 0 22 22" fill="none" xmlns="http://www.w3.org/2000/svg">
<path d="M15.3748 2.24984C16.5342 2.25331 17.6451 2.71539 18.4648 3.53517C19.2846 4.35495 19.7467 5.46582 19.7502 6.62516V15.3748C19.7467 16.5342 19.2846 17.6451 18.4648 18.4648C17.6451 19.2846 16.5342 19.7467 15.3748 19.7502H6.62516C5.46582 19.7467 4.35495 19.2846 3.53517 18.4648C2.71539 17.6451 2.25331 16.5342 2.24984 15.3748V6.62516C2.25331 5.46582 2.71539 4.35495 3.53517 3.53517C4.35495 2.71539 5.46582 2.25331 6.62516 2.24984H15.3748ZM15.3748 0.5H6.62516C3.25625 0.5 0.5 3.25625 0.5 6.62516V15.3748C0.5 18.7437 3.25625 21.5 6.62516 21.5H15.3748C18.7437 21.5 21.5 18.7437 21.5 15.3748V6.62516C21.5 3.25625 18.7437 0.5 15.3748 0.5Z" fill="#F5F6F6"/>
</svg>
