<svg width="16" height="18" viewBox="0 0 16 18" fill="none" xmlns="http://www.w3.org/2000/svg">
<path d="M15.2806 8.03073C15.2109 8.10046 15.1282 8.15578 15.0371 8.19352C14.9461 8.23127 14.8485 8.25069 14.7499 8.25069C14.6514 8.25069 14.5538 8.23127 14.4627 8.19352C14.3717 8.15578 14.289 8.10046 14.2193 8.03073L8.74993 2.56041V17.2501C8.74993 17.449 8.67091 17.6398 8.53026 17.7804C8.38961 17.9211 8.19884 18.0001 7.99993 18.0001C7.80102 18.0001 7.61025 17.9211 7.4696 17.7804C7.32895 17.6398 7.24993 17.449 7.24993 17.2501V2.56041L1.78055 8.03073C1.63982 8.17146 1.44895 8.25052 1.24993 8.25052C1.05091 8.25052 0.860034 8.17146 0.719304 8.03073C0.578573 7.89 0.499512 7.69912 0.499512 7.5001C0.499512 7.30108 0.578573 7.11021 0.719304 6.96948L7.4693 0.219477C7.53896 0.149744 7.62168 0.0944251 7.71272 0.0566819C7.80377 0.0189387 7.90137 -0.000488281 7.99993 -0.000488281C8.09849 -0.000488281 8.19609 0.0189387 8.28713 0.0566819C8.37818 0.0944251 8.4609 0.149744 8.53055 0.219477L15.2806 6.96948C15.3503 7.03913 15.4056 7.12185 15.4433 7.2129C15.4811 7.30395 15.5005 7.40154 15.5005 7.5001C15.5005 7.59866 15.4811 7.69626 15.4433 7.78731C15.4056 7.87836 15.3503 7.96107 15.2806 8.03073Z" fill="#F5F6F6"/>
</svg>
